<?xml version="1.0" encoding="UTF-8" standalone="no"?>
<svg
   viewBox="0 0 500 500"
   version="1.1"
   id="svg102"
   sodipodi:docname="animals.svg"
   inkscape:version="1.4.2 (f4327f4, 2025-05-13)"
   xmlns:inkscape="http://www.inkscape.org/namespaces/inkscape"
   xmlns:sodipodi="http://sodipodi.sourceforge.net/DTD/sodipodi-0.dtd"
   xmlns="http://www.w3.org/2000/svg"
   xmlns:svg="http://www.w3.org/2000/svg">
  <defs
     id="defs102" />
  <sodipodi:namedview
     id="namedview102"
     pagecolor="#ffffff"
     bordercolor="#000000"
     borderopacity="0.25"
     inkscape:showpageshadow="2"
     inkscape:pageopacity="0.0"
     inkscape:pagecheckerboard="0"
     inkscape:deskcolor="#d1d1d1"
     inkscape:zoom="1.614"
     inkscape:cx="250"
     inkscape:cy="250"
     inkscape:window-width="1920"
     inkscape:window-height="1009"
     inkscape:window-x="1912"
     inkscape:window-y="-8"
     inkscape:window-maximized="1"
     inkscape:current-layer="svg102" />
  <g
     id="freepik--Shadow--inject-296"
     transform="matrix(-1,0,0,1,503.76612,0)">
    <path
       d="m 440.364,473.95 c 0,2.843 -79.235,5.148 -176.977,5.148 -97.742,0 -176.977,-2.305 -176.977,-5.148 0,-2.843 79.235,-5.148 176.977,-5.148 97.742,0 176.977,2.305 176.977,5.148 z"
       style="fill:#f5f5f5"
       id="path1" />
  </g>
  <g
     id="freepik--Cat--inject-296"
     transform="matrix(-1,0,0,1,503.76612,0)">
    <g
       id="g60">
      <g
         id="g16">
        <g
           id="g6">
          <path
             d="m 295.811,228.288 c 6.648,13.142 15.567,24.986 25.531,35.786 5.031,5.453 10.332,10.653 15.785,15.682 5.64,5.201 11.531,10.191 16.49,16.074 5.433,6.447 9.72,14.238 10.211,22.801 0.055,0.96 1.555,0.966 1.5,0 -0.891,-15.553 -12.72,-26.836 -23.537,-36.65 -11.226,-10.184 -22.032,-20.895 -31.195,-33.009 -5.103,-6.746 -9.67,-13.892 -13.49,-21.443 -0.436,-0.862 -1.73,-0.103 -1.295,0.757 v 0 z"
             style="fill:#263238"
             id="path2" />
          <g
             id="g5">
            <path
               d="m 300.832,162.295 c -15.107,-22.857 -39.471,-27.613 -57.686,-15.57 -18.215,12.043 -23.375,36.32 -8.329,59.179 14.472,21.873 43.617,36.499 62.039,27.122 -0.342,2.205 0.147,4.459 1.37,6.325 l 8.477,-5.619 c -1.234,-1.858 -3.119,-3.188 -5.284,-3.727 15.924,-13.295 13.884,-45.838 -0.587,-67.711 z"
               style="fill:#407bff"
               id="path3" />
            <path
               d="m 300.832,162.295 c -15.107,-22.857 -39.471,-27.613 -57.686,-15.57 -18.215,12.043 -23.375,36.32 -8.329,59.179 14.472,21.873 43.617,36.499 62.039,27.122 -0.342,2.205 0.147,4.459 1.37,6.325 l 8.477,-5.619 c -1.234,-1.858 -3.119,-3.188 -5.284,-3.727 15.924,-13.295 13.884,-45.838 -0.587,-67.711 z"
               style="opacity:0.3;fill:#ffffff"
               id="path4" />
            <path
               d="m 296.944,233.868 c -0.183,0.005 -0.362,-0.053 -0.508,-0.164 -0.38,-0.269 -0.47,-0.795 -0.201,-1.176 l 0.002,-0.003 c 0.269,-0.37 2.712,-3.745 5.356,-3.368 0.466,0.067 0.792,0.494 0.734,0.961 -0.066,0.461 -0.493,0.781 -0.954,0.715 h -0.007 c -1.393,-0.197 -3.213,1.911 -3.751,2.672 -0.153,0.221 -0.402,0.356 -0.671,0.363 z"
               style="fill:#263238"
               id="path5" />
          </g>
        </g>
        <g
           id="g10">
          <path
             d="m 357.969,333.88 c 4.142,-7.732 4.53,-16.775 3.686,-25.335 -0.545,-5.533 -1.694,-10.972 -2.656,-16.441 -0.753,-4.281 -1.451,-8.576 -2.373,-12.825 -2.161,-9.964 -5.864,-19.505 -10.036,-28.783 -4.866,-10.824 -10.371,-21.445 -13.804,-32.846 -3.709,-12.319 -5.01,-25.82 -0.25,-38.044 0.351,-0.9 -1.099,-1.29 -1.446,-0.399 -8.579,22.029 1.75,45.138 11.004,65.073 4.624,9.962 9.133,20.033 11.953,30.681 1.056,3.988 1.835,8.038 2.553,12.099 0.916,5.179 1.93,10.348 2.771,15.539 1.628,10.045 2.265,21.26 -2.698,30.524 -0.456,0.851 0.839,1.609 1.295,0.757 v 0 z"
             style="fill:#263238"
             id="path6" />
          <g
             id="g8">
            <path
               d="m 394.689,118.358 c 7.491,-33.46 -9.374,-59.553 -36.042,-65.518 -26.668,-5.965 -53.033,10.458 -60.578,43.866 -7.154,32.034 4.961,71.005 29.407,79.47 -2.284,1.606 -3.892,4.003 -4.512,6.726 l 12.425,2.764 c 0.603,-2.726 0.165,-5.579 -1.228,-7.999 25.808,2.814 53.374,-27.275 60.529,-59.31 z"
               style="fill:#407bff"
               id="path7" />
            <path
               d="m 326.793,176.985 c -0.163,-0.161 -0.266,-0.373 -0.292,-0.6 -0.088,-0.576 0.309,-1.114 0.885,-1.202 h 0.005 c 0.568,-0.079 5.729,-0.807 7.686,1.903 0.344,0.478 0.242,1.143 -0.229,1.496 -0.473,0.341 -1.133,0.234 -1.473,-0.239 l -0.005,-0.007 c -1.032,-1.426 -4.513,-1.236 -5.666,-1.061 -0.332,0.054 -0.67,-0.053 -0.91,-0.29 z"
               style="fill:#263238"
               id="path8" />
          </g>
          <g
             style="opacity:0.3"
             id="g9">
            <path
               d="m 361.136,63.088 c -0.362,-0.519 -0.922,-0.859 -1.474,-1.167 -6.543,-3.651 -10.756,-6.165 -20.963,-2.957 -9.577,4.528 -18.097,11.272 -24.703,19.552 -2.243,2.812 -4.322,5.926 -4.908,9.474 -0.586,3.549 0.679,7.616 3.809,9.387 2.444,1.382 5.469,1.141 8.214,0.55 7.718,-1.661 14.695,-5.697 21.37,-9.913 8.43,-5.324 17.319,-12.077 19.007,-21.904 0.176,-1.027 0.243,-2.169 -0.353,-3.023 z"
               style="fill:#ffffff"
               id="path9" />
          </g>
        </g>
        <g
           id="g15">
          <g
             id="g14">
            <path
               d="m 385.658,238.16 c 0.054,5.386 -1.091,10.64 -2.33,15.852 -1.267,5.329 -2.545,10.655 -3.817,15.982 -2.571,10.762 -5.141,21.524 -7.712,32.287 -0.67,2.805 -1.287,5.628 -2.034,8.413 -0.691,2.577 -1.61,5.116 -3.381,7.159 -0.63,0.726 0.427,1.792 1.061,1.061 3.101,-3.577 3.922,-8.37 4.989,-12.836 1.334,-5.583 2.667,-11.167 4.001,-16.75 2.629,-11.005 5.257,-22.01 7.886,-33.015 1.425,-5.967 2.9,-11.978 2.838,-18.154 -0.01,-0.965 -1.51,-0.967 -1.5,0 v 0 z"
               style="fill:#263238"
               id="path10" />
            <g
               id="g13">
              <g
                 id="g12">
                <path
                   d="m 435.209,208.961 c 5.869,-26.762 -7.697,-47.552 -29.027,-52.226 -21.33,-4.674 -42.339,8.541 -48.251,35.262 -5.605,25.621 4.212,56.718 23.774,63.398 -1.82,1.291 -3.096,3.212 -3.582,5.39 l 9.938,2.165 c 0.473,-2.18 0.113,-4.459 -1.009,-6.387 20.631,2.158 42.553,-21.98 48.158,-47.601 z"
                   style="fill:#407bff"
                   id="path11" />
                <path
                   d="m 381.162,256.043 c -0.131,-0.128 -0.214,-0.297 -0.236,-0.479 -0.072,-0.46 0.243,-0.892 0.703,-0.964 h 0.004 c 0.453,-0.066 4.575,-0.665 6.148,1.494 0.276,0.381 0.198,0.912 -0.177,1.196 -0.377,0.274 -0.904,0.19 -1.178,-0.186 l -0.004,-0.006 c -0.83,-1.136 -3.61,-0.972 -4.531,-0.828 -0.265,0.044 -0.536,-0.04 -0.728,-0.228 z"
                   style="fill:#263238"
                   id="path12" />
              </g>
              <path
                 d="m 435.209,208.961 c 5.869,-26.762 -7.697,-47.552 -29.027,-52.226 -21.33,-4.674 -42.339,8.541 -48.251,35.262 -5.605,25.621 4.212,56.718 23.774,63.398 -1.82,1.291 -3.096,3.212 -3.582,5.39 l 9.938,2.165 c 0.473,-2.18 0.113,-4.459 -1.009,-6.387 20.631,2.158 42.553,-21.98 48.158,-47.601 z"
                 style="opacity:0.3"
                 id="path13" />
            </g>
          </g>
          <path
             d="m 426.596,163.255 c 4.033,3.168 7.281,7.197 9.444,11.853 2.363,5.086 3.392,10.677 4.236,16.183 0.146,0.951 1.591,0.547 1.446,-0.399 -0.865,-5.651 -1.963,-11.324 -4.387,-16.542 -2.209,-4.755 -5.56,-8.921 -9.679,-12.157 -0.751,-0.59 -1.82,0.465 -1.061,1.061 v 0 z"
             style="fill:#407bff"
             id="path14" />
        </g>
      </g>
      <path
         d="m 332.574,287.548 c 0,0.609 -0.275,1.102 -0.614,1.102 -0.339,0 -0.615,-0.494 -0.615,-1.102 0,-0.608 0.275,-1.102 0.615,-1.102 0.34,0 0.614,0.493 0.614,1.102 z"
         style="fill:#ffffff"
         id="path16" />
      <path
         d="m 312.153,286.551 c 0,0.609 -0.275,1.102 -0.614,1.102 -0.339,0 -0.614,-0.493 -0.614,-1.102 0,-0.609 0.275,-1.102 0.614,-1.102 0.339,0 0.614,0.494 0.614,1.102 z"
         style="fill:#ffffff"
         id="path17" />
      <g
         id="g59">
        <g
           id="g20">
          <path
             d="m 358.715,384.551 c -0.104,-6.079 -1.386,-12.396 -5.191,-17.139 l -19.111,8.751 c -3.279,3.432 -5.872,7.717 -6.42,12.432 -0.549,4.715 1.248,9.855 5.185,12.508 -1.856,1.805 -3.419,10.472 -4.158,12.953 -0.738,2.481 -0.581,5.293 0.769,7.501 0.751,1.229 2.02,2.304 3.458,2.225 1.655,-0.091 2.818,-1.597 3.817,-2.919 5.238,-6.931 12.202,-18.867 17.733,-25.567 1.414,-1.714 2.757,-3.555 3.398,-5.682 0.492,-1.631 0.549,-3.36 0.52,-5.063 z"
             style="fill:#263238"
             id="path18" />
          <path
             d="m 358.719,384.556 c -0.102,-6.079 -1.382,-12.397 -5.185,-17.141 l -19.114,8.745 c -3.28,3.431 -5.874,7.715 -6.424,12.43 -0.55,4.715 1.245,9.856 5.181,12.51 -1.857,1.804 -3.422,10.471 -4.162,12.952 -0.739,2.481 -0.583,5.293 0.767,7.502 0.751,1.229 2.019,2.305 3.457,2.226 1.655,-0.091 2.818,-1.596 3.818,-2.918 5.24,-6.929 12.209,-18.863 17.741,-25.562 1.415,-1.713 2.758,-3.554 3.4,-5.681 0.492,-1.631 0.55,-3.36 0.521,-5.063 z"
             style="fill:#ffffff"
             id="path19" />
          <path
             d="m 358.719,384.556 c -0.102,-6.079 -1.382,-12.397 -5.185,-17.141 l -19.114,8.745 c -3.28,3.431 -5.874,7.715 -6.424,12.43 -0.55,4.715 1.245,9.856 5.181,12.51 -1.857,1.804 -3.422,10.471 -4.162,12.952 -0.739,2.481 -0.583,5.293 0.767,7.502 0.751,1.229 2.019,2.305 3.457,2.226 1.655,-0.091 2.818,-1.596 3.818,-2.918 5.24,-6.929 12.209,-18.863 17.741,-25.562 1.415,-1.713 2.758,-3.554 3.4,-5.681 0.492,-1.631 0.55,-3.36 0.521,-5.063 z"
             id="path20" />
        </g>
        <path
           d="m 401.861,414.44 c -2.495,-4.812 -5.543,-9.331 -7.83,-14.246 -3.507,-7.538 -5.145,-15.937 -4.729,-24.24 l -10.568,9.213 c 0.72,5.191 2.41,10.246 4.957,14.826 4.842,8.707 12.869,16.064 14.395,25.909 0.487,3.141 0.255,6.39 -0.673,9.43 -1.639,5.373 -5.754,10.178 -11.175,11.652 -5.421,1.474 -11.937,-1.064 -14.12,-6.24 -0.79,-1.872 -1.044,-4.019 -2.314,-5.605 -1.211,-1.511 -3.316,-2.266 -5.199,-1.811 -1.883,0.455 -3.427,2.123 -3.678,4.043 -0.114,0.869 0.017,1.75 0.188,2.609 0.512,2.572 1.408,5.119 3.03,7.179 2.935,3.729 7.846,5.366 12.573,5.789 6.958,0.622 14.202,-1.075 19.825,-5.219 5.623,-4.144 9.46,-10.813 9.641,-17.796 0.14,-5.418 -1.827,-10.682 -4.322,-15.493 z"
           style="fill:#263238"
           id="path21" />
        <path
           d="m 367.141,301.936 c -0.147,-0.336 36.79,77.353 10.847,88.472 -25.911,11.106 -49.011,9.471 -49.704,-28.422 -0.473,-25.873 -9.877,-31.956 -12.385,-52.316 -0.961,-7.804 18.835,-26.946 33.841,-27.311 5.002,-0.122 17.402,19.577 17.402,19.577 z"
           style="fill:#263238"
           id="path22" />
        <path
           d="m 331.293,335.21 c 0,0 -1.264,-8.059 2.015,-11.557 3.279,-3.497 10.546,-3.168 11.705,1.093 1.159,4.261 4.074,11.667 4.074,11.667 0,0 11.792,16.531 10.903,27.46 -0.889,10.93 -7.922,19.782 -13.422,19.454 -5.5,-0.328 -13.725,-4.481 -15.514,-14.208 -1.79,-9.727 -0.806,-25.794 -0.697,-26.121 0.109,-0.328 0.936,-7.788 0.936,-7.788 z"
           style="opacity:0.2;isolation:isolate;fill:#ffffff"
           id="path23" />
        <path
           d="m 324.399,333.091 c 0,0 37.069,10.07 46.078,-23.677 l 6.998,18.119 c 0,0 -3.24,15.2 -21.583,19.593 -27.428,6.568 -29.056,0.262 -29.056,0.262 z"
           style="fill:#407bff"
           id="path24" />
        <path
           d="m 318.156,320.146 c -3.074,6.834 -8.225,30.089 -12.014,36.871 -4.631,6.867 -2.867,10.199 3.41,9.994 6.277,-0.205 10.703,-7.088 9.907,-10.325 -0.796,-3.237 12.657,-23.315 10.239,-29.718 -1.835,-4.851 -7.911,-9.996 -11.542,-6.822 z"
           style="fill:#263238"
           id="path25" />
        <path
           d="m 318.156,320.146 c -3.074,6.834 -8.225,30.089 -12.014,36.871 -4.631,6.867 -2.867,10.199 3.41,9.994 6.277,-0.205 10.703,-7.088 9.907,-10.325 -0.796,-3.237 12.657,-23.315 10.239,-29.718 -1.835,-4.851 -7.911,-9.996 -11.542,-6.822 z"
           style="opacity:0.2;isolation:isolate;fill:#ffffff"
           id="path26" />
        <path
           d="m 310.001,367.412 c -0.084,0 -0.166,-0.024 -0.236,-0.071 -1.181,-0.874 -0.614,-4.158 0.236,-6.095 0.065,-0.208 0.286,-0.323 0.494,-0.257 0.207,0.065 0.323,0.286 0.257,0.494 -0.009,0.027 -0.02,0.054 -0.034,0.079 -0.929,2.142 -1.063,4.725 -0.48,5.143 0.174,0.13 0.209,0.377 0.079,0.551 -0.074,0.099 -0.191,0.158 -0.315,0.158 z"
           id="path27" />
        <path
           d="m 305.512,366.806 c -0.114,-10e-4 -0.222,-0.049 -0.299,-0.134 -0.929,-1.047 -0.087,-4.339 1.236,-6.206 0.126,-0.178 0.373,-0.221 0.551,-0.094 0.178,0.126 0.221,0.373 0.094,0.551 -1.252,1.756 -1.835,4.615 -1.292,5.229 0.152,0.149 0.155,0.394 0.006,0.546 l -0.006,0.006 c -0.078,0.074 -0.184,0.111 -0.291,0.102 z"
           id="path28" />
        <path
           d="m 349.679,321.355 c -1.28,7.384 -6.078,27.987 -8.064,35.497 -2.78,7.802 5.341,13.793 11.37,12.036 6.029,-1.757 8.607,-9.524 7.032,-12.462 -1.574,-2.938 3.123,-26.812 -0.809,-32.413 -2.982,-4.243 -6.801,-6.634 -9.529,-2.658 z"
           style="opacity:0.2;isolation:isolate"
           id="path29" />
        <path
           d="m 346.914,318.275 c -1.28,7.384 -0.493,31.189 -2.479,38.699 -2.78,7.802 -0.243,10.591 5.786,8.834 6.029,-1.757 8.607,-9.524 7.032,-12.462 -1.574,-2.938 6.469,-25.729 2.536,-31.33 -2.982,-4.243 -10.146,-7.717 -12.875,-3.741 z"
           style="fill:#263238"
           id="path30" />
        <path
           d="m 346.914,318.275 c -1.28,7.384 -0.493,31.189 -2.479,38.699 -2.78,7.802 -0.243,10.591 5.786,8.834 6.029,-1.757 8.607,-9.524 7.032,-12.462 -1.574,-2.938 6.469,-25.729 2.536,-31.33 -2.982,-4.243 -10.146,-7.717 -12.875,-3.741 z"
           style="opacity:0.2;isolation:isolate;fill:#ffffff"
           id="path31" />
        <path
           d="m 350.754,366.085 c -0.081,0.022 -0.167,0.018 -0.246,-0.01 -1.361,-0.553 -1.628,-3.875 -1.285,-5.963 0.012,-0.217 0.197,-0.384 0.414,-0.372 0.217,0.012 0.384,0.197 0.372,0.414 -0.002,0.029 -0.006,0.057 -0.014,0.085 -0.368,2.306 0.144,4.841 0.812,5.101 0.201,0.083 0.296,0.314 0.213,0.514 -0.047,0.114 -0.146,0.2 -0.266,0.231 z"
           id="path32" />
        <path
           d="m 346.255,366.613 c -0.111,0.027 -0.228,0.007 -0.323,-0.055 -1.16,-0.784 -1.162,-4.182 -0.344,-6.318 0.078,-0.204 0.306,-0.306 0.511,-0.228 0.204,0.078 0.306,0.306 0.228,0.51 -0.777,2.012 -0.631,4.926 0.048,5.386 0.184,0.107 0.248,0.343 0.141,0.527 l -0.004,0.007 c -0.057,0.091 -0.151,0.154 -0.257,0.172 z"
           id="path33" />
        <g
           style="opacity:0.2;isolation:isolate"
           id="g34">
          <path
             d="m 389.279,390.354 c 0.492,-1.631 0.549,-3.36 0.52,-5.063 -0.104,-6.079 -1.386,-12.396 -5.191,-17.139 l -19.111,8.751 c -3.279,3.433 -5.872,7.717 -6.42,12.432 0,0 -0.983,6.751 -0.794,6.729 0.189,-0.022 30.997,-5.71 30.997,-5.71 z"
             id="path34" />
        </g>
        <path
           d="m 390.809,384.551 c -0.104,-6.079 -1.386,-12.396 -5.191,-17.139 l -19.111,8.751 c -3.279,3.432 -5.872,7.717 -6.42,12.432 -0.549,4.715 1.248,9.855 5.185,12.508 -1.856,1.805 -3.419,10.472 -4.158,12.953 -0.738,2.481 -0.581,5.293 0.769,7.501 0.751,1.229 2.02,2.304 3.458,2.225 1.655,-0.091 2.818,-1.597 3.817,-2.919 5.238,-6.931 12.202,-18.867 17.733,-25.567 1.414,-1.714 2.757,-3.555 3.398,-5.682 0.492,-1.631 0.549,-3.36 0.52,-5.063 z"
           style="fill:#263238"
           id="path35" />
        <g
           style="opacity:0.2;isolation:isolate"
           id="g36">
          <path
             d="m 390.809,384.551 c -0.104,-6.079 -1.386,-12.396 -5.191,-17.139 l -19.111,8.751 c -3.279,3.432 -5.872,7.717 -6.42,12.432 -0.549,4.715 1.248,9.855 5.185,12.508 -1.856,1.805 -3.419,10.472 -4.158,12.953 -0.738,2.481 -0.581,5.293 0.769,7.501 0.751,1.229 2.02,2.304 3.458,2.225 1.655,-0.091 2.818,-1.597 3.817,-2.919 5.238,-6.931 12.202,-18.867 17.733,-25.567 1.414,-1.714 2.757,-3.555 3.398,-5.682 0.492,-1.631 0.549,-3.36 0.52,-5.063 z"
             style="fill:#ffffff"
             id="path36" />
        </g>
        <path
           d="m 355.815,279.28 c 4.699,-15.617 -4.931,-31.363 -4.931,-31.363 -7.187,3.161 -13.385,8.207 -17.938,14.603 -4.337,-0.191 -8.68,-0.132 -13.01,0.177 -2.396,-4.022 -8.948,-13.192 -19.409,-14.309 0,0 -4.337,19.204 1.65,29.013 -1.809,2.902 -3.437,5.913 -4.874,9.015 -3.037,6.798 2.072,15.438 5.794,20.131 3.722,4.693 13.754,10.123 23.223,10.252 13.825,0.177 28.115,-11.088 30.746,-16.936 1.352,-3.084 1.925,-12.126 -1.251,-20.583 z"
           style="fill:#263238"
           id="path37" />
        <path
           d="m 328.356,316.569 c -0.684,0.064 -1.369,0.128 -2.053,0.192 -6.499,-0.089 -12.796,-2.278 -17.949,-6.239 -1.752,-2.604 -2.428,-5.785 -1.887,-8.877 l 0.386,1.058 c -0.368,-1.525 0.014,-3.133 1.027,-4.33 l 0.215,2.299 c 0,0 0.543,-7.411 6.67,-5.836 l 4.222,0.295 c 6.37,-1.535 10.211,7.211 10.211,7.211 l 0.379,-2.068 c 0,0 4.287,2.79 5.05,6.9 l 1.47,-0.854 c 0,0 -0.688,7.815 -7.742,10.248 z"
           style="opacity:0.2;isolation:isolate;fill:#ffffff"
           id="path38" />
        <path
           d="m 355.815,279.28 c 4.699,-15.617 -4.931,-31.363 -4.931,-31.363 -7.187,3.161 -13.385,8.207 -17.938,14.603 -4.337,-0.191 -8.68,-0.132 -13.01,0.177 -2.396,-4.022 -8.948,-13.192 -19.409,-14.309 0,0 -4.337,19.204 1.65,29.013 -1.809,2.902 -3.437,5.913 -4.874,9.015 -3.037,6.798 2.072,15.438 5.794,20.131 3.722,4.693 13.754,10.123 23.223,10.252 13.825,0.177 28.115,-11.088 30.746,-16.936 1.352,-3.084 1.925,-12.126 -1.251,-20.583 z"
           style="opacity:0.2;isolation:isolate;fill:#ffffff"
           id="path39" />
        <path
           d="m 334.481,287.148 c 0.009,2.604 -1.391,4.755 -3.123,4.761 -1.732,0.006 -3.167,-2.1 -3.178,-4.718 -0.011,-2.617 1.378,-4.754 3.122,-4.774 1.744,-0.02 3.168,2.113 3.179,4.731 z"
           style="fill:#263238"
           id="path40" />
        <path
           d="m 313.947,286.16 c -0.378,2.641 -2.08,4.494 -3.808,4.265 -1.728,-0.229 -2.845,-2.56 -2.424,-5.153 0.421,-2.593 2.093,-4.495 3.808,-4.265 1.715,0.23 2.806,2.564 2.424,5.153 z"
           style="fill:#263238"
           id="path41" />
        <path
           d="m 313.033,294.842 c 1.514,-1.149 3.622,-1.098 5.079,0.123 0.947,0.654 -2.275,3.522 -2.275,3.522 0,0 -3.464,-2.489 -2.804,-3.645 z"
           style="fill:#263238"
           id="path42" />
        <path
           d="m 323.255,305.648 c -2.841,0.266 -6.867,-1.128 -7.507,-2.124 -0.84,-1.315 -0.662,-6.373 -0.691,-7.374 0.02,-0.282 0.257,-0.499 0.54,-0.493 0.285,0.014 0.506,0.255 0.494,0.54 -0.094,2.197 -0.053,5.971 0.452,6.771 0.505,0.799 5.438,2.422 7.737,1.386 0.337,-0.162 1.373,-0.637 0.83,-2.683 -0.073,-0.277 0.093,-0.561 0.37,-0.634 v 0 c 0.277,-0.073 0.561,0.092 0.634,0.37 v 0 c 0.668,2.543 -0.633,3.538 -1.458,3.902 -0.446,0.188 -0.919,0.302 -1.401,0.34 z"
           style="fill:#263238"
           id="path43" />
        <path
           d="m 314.397,304.537 c -1.069,0.064 -2.132,-0.206 -3.042,-0.77 -0.994,-0.477 -1.74,-1.355 -2.05,-2.413 -0.131,-0.636 -0.006,-1.299 0.348,-1.843 0.182,-0.216 0.504,-0.246 0.723,-0.068 0.209,0.186 0.239,0.502 0.068,0.723 -0.201,0.304 -0.266,0.679 -0.177,1.033 0.269,0.75 0.828,1.36 1.552,1.691 2.492,1.434 3.91,0.024 3.909,0.012 0.2,-0.206 0.529,-0.21 0.735,-0.01 0.206,0.2 0.21,0.529 0.01,0.735 v 0 c -0.582,0.511 -1.307,0.829 -2.077,0.911 z"
           style="fill:#263238"
           id="path44" />
        <path
           d="m 358.129,293.419 c -2.217,-1.968 -7.662,-5.17 -20.42,-6.75 0,0 14.117,-0.463 20.43,4.769 0.012,0.689 0.01,1.354 -0.01,1.981 z"
           style="opacity:0.4;isolation:isolate"
           id="path45" />
        <path
           d="m 318.859,284.448 c 0.03,0.323 -0.588,-13.506 4.328,-21.939 0.917,-0.086 1.83,-0.067 2.727,-0.086 l 0.232,-0.022 c -4.111,6.682 -6.606,14.231 -7.288,22.047 z"
           style="opacity:0.4;isolation:isolate"
           id="path46" />
        <path
           d="m 334.746,267.419 c 0,0 7.088,-12.779 15.436,-17.665 5.293,8.611 6.68,19.065 3.814,28.758 0,0 -6.087,-0.732 -8.111,-3.148 0,0 1.017,-3.743 3.414,-5.27 -1.62,0.642 -3.057,1.672 -4.187,2.998 0,0 0.371,-6.053 2.46,-9.063 0,0 -4.252,3.694 -5.008,8.285 -0.074,0.046 -6.377,-1.461 -7.819,-4.895 z"
           style="opacity:0.2;isolation:isolate;fill:#ffffff"
           id="path47" />
        <path
           d="m 332.945,262.52 c -0.469,1.163 -0.844,2.361 -1.123,3.583 -1.044,-1.009 -1.775,-2.297 -2.106,-3.711 1.191,0.058 2.288,0.085 3.23,0.127 z"
           style="opacity:0.2;isolation:isolate"
           id="path48" />
        <path
           d="m 303.09,276.585 c 0,0 3.946,-4.877 6.267,-6.384 0,0 -2.239,-3.464 -3.072,-3.725 1.255,0.336 2.428,0.927 3.445,1.736 0,0 -0.75,-3.838 -2.505,-5.601 1.861,1.424 3.425,3.198 4.606,5.222 l 3.655,-2.7 c -2.982,-6.555 -8.071,-11.925 -14.456,-15.255 0,0 -3.926,17.186 2.059,26.708 z"
           style="opacity:0.2;isolation:isolate;fill:#ffffff"
           id="path49" />
        <path
           d="m 297.325,286.387 c 1.429,-3.093 3.049,-6.095 4.851,-8.987 -0.588,-0.96 -1.072,-1.98 -1.444,-3.043 4.708,-5.365 12.625,-7.631 12.625,-7.631 -6.441,5.577 -11.865,12.23 -16.031,19.661 z"
           style="opacity:0.2;isolation:isolate"
           id="path50" />
        <path
           d="m 330.765,262.464 c -0.819,1.097 -1.546,2.258 -2.176,3.474 -0.498,0.936 -0.908,1.916 -1.224,2.928 -0.312,0.98 -0.453,2.114 -0.891,3.145 -0.926,1.96 -2.063,3.814 -3.39,5.528 -1.335,1.65 -2.309,3.56 -2.861,5.609 0.466,-2.083 1.366,-4.045 2.639,-5.758 1.246,-1.75 2.297,-3.631 3.135,-5.609 0.3,-1.026 0.546,-2.066 0.737,-3.117 0.283,-1.066 0.661,-2.104 1.129,-3.102 0.518,-1.088 1.102,-2.143 1.749,-3.16 l 0.129,-0.012 1.023,0.073 z"
           style="opacity:0.4;isolation:isolate"
           id="path51" />
        <path
           d="m 317.209,276.148 c 0.273,1.964 0.359,3.949 0.256,5.929 -0.003,-1.976 -0.187,-3.947 -0.552,-5.889 -0.164,-0.986 -0.257,-1.983 -0.279,-2.983 0.047,-1.017 0.275,-2.018 0.674,-2.955 0.348,-0.922 0.643,-1.863 0.882,-2.818 0.32,-0.938 0.718,-1.847 1.191,-2.717 0.355,-0.659 0.718,-1.37 1.122,-1.929 l 1.175,-0.11 c -0.565,0.782 -1.09,1.574 -1.584,2.415 -0.495,0.829 -0.915,1.701 -1.254,2.606 -0.293,0.9 -0.629,1.909 -1.04,2.807 -0.437,0.86 -0.704,1.796 -0.784,2.757 0.007,0.965 0.071,1.929 0.192,2.887 z"
           style="opacity:0.4;isolation:isolate"
           id="path52" />
        <path
           d="m 356.338,301.142 c -0.159,0.249 -0.343,0.514 -0.551,0.794 -2.84,-0.938 -5.558,-2.215 -8.094,-3.801 -1.839,-1.072 -3.431,-2.521 -4.671,-4.252 -1.174,-1.75 -3.125,-2.821 -5.232,-2.871 2.154,-0.03 4.19,0.983 5.465,2.719 1.278,1.635 2.892,2.976 4.732,3.934 2.633,1.491 5.437,2.658 8.35,3.477 z"
           style="opacity:0.4;isolation:isolate"
           id="path53" />
        <path
           d="m 304.802,283.459 c -1.198,0.04 -2.388,0.217 -3.546,0.528 -1.148,0.309 -2.256,0.749 -3.303,1.312 l -0.103,0.01 c 0.107,-0.245 0.228,-0.49 0.36,-0.75 0.963,-0.386 1.96,-0.68 2.979,-0.878 1.192,-0.21 2.405,-0.284 3.614,-0.221 z"
           style="opacity:0.4;isolation:isolate"
           id="path54" />
        <path
           d="m 304.166,288.352 c -1.312,0.479 -2.475,1.293 -3.374,2.361 -0.91,1.052 -1.724,2.183 -2.432,3.38 -0.399,0.611 -0.77,1.232 -1.13,1.838 -0.09,-0.265 -0.181,-0.543 -0.247,-0.824 l 0.931,-1.325 c 0.803,-1.161 1.703,-2.252 2.691,-3.261 0.98,-1.019 2.207,-1.766 3.562,-2.171 z"
           style="opacity:0.4;isolation:isolate"
           id="path55" />
        <polygon
           points="390.289,389.614 386.302,404.203 383.691,399.993 "
           style="opacity:0.2;isolation:isolate"
           id="polygon55" />
        <g
           style="opacity:0.4;isolation:isolate"
           id="g56">
          <path
             d="m 380.798,337.386 c -0.976,2.079 -1.952,4.158 -2.928,6.238 -1.185,2.523 -2.375,5.057 -3.914,7.382 -2.349,3.549 -5.451,6.525 -8.525,9.468 3.704,-0.279 6.613,-3.158 9.163,-5.86 3.263,-3.457 6.629,-7.086 8.013,-11.634 z"
             id="path56" />
        </g>
        <g
           style="opacity:0.4;isolation:isolate"
           id="g57">
          <path
             d="m 384.369,350.346 c -0.617,1.315 -1.234,2.63 -1.852,3.944 -0.749,1.596 -1.502,3.198 -2.475,4.668 -1.485,2.244 -3.446,4.126 -5.39,5.987 2.342,-0.176 4.181,-1.997 5.794,-3.705 2.063,-2.186 4.192,-4.481 5.067,-7.356 l -1.144,-3.537 z"
             id="path57" />
        </g>
        <path
           d="m 375.355,444.842 c -1.401,-1.069 -2.54,-2.448 -3.237,-4.098 -0.79,-1.872 -1.044,-4.019 -2.314,-5.605 -1.211,-1.511 -3.316,-2.266 -5.199,-1.811 -1.883,0.455 -3.427,2.123 -3.679,4.043 -0.114,0.869 0.017,1.75 0.188,2.609 0.511,2.571 1.408,5.119 3.03,7.179 1.054,1.339 2.365,2.404 3.829,3.245 2.003,-1.541 5.057,-3.819 7.382,-5.562 z"
           style="opacity:0.4;isolation:isolate"
           id="path58" />
        <path
           d="m 401.861,414.44 c -2.495,-4.812 -5.543,-9.331 -7.83,-14.246 -3.507,-7.538 -5.145,-15.937 -4.729,-24.24 l -10.568,9.213 c 0.72,5.191 2.41,10.246 4.957,14.826 4.842,8.707 12.869,16.064 14.395,25.909 0.487,3.141 0.255,6.39 -0.673,9.43 -1.639,5.373 -5.754,10.178 -11.175,11.652 -5.421,1.474 -11.937,-1.064 -14.12,-6.24 -0.79,-1.872 -1.044,-4.019 -2.314,-5.605 -1.211,-1.511 -3.316,-2.266 -5.199,-1.811 -1.883,0.455 -3.427,2.123 -3.678,4.043 -0.114,0.869 0.017,1.75 0.188,2.609 0.512,2.572 1.408,5.119 3.03,7.179 2.935,3.729 7.846,5.366 12.573,5.789 6.958,0.622 14.202,-1.075 19.825,-5.219 5.623,-4.144 9.46,-10.813 9.641,-17.796 0.14,-5.418 -1.827,-10.682 -4.322,-15.493 z"
           style="fill:#ffffff"
           id="path59" />
      </g>
    </g>
  </g>
  <g
     id="freepik--Dog--inject-296"
     transform="matrix(-1,0,0,1,503.76612,0)">
    <g
       id="g102">
      <g
         id="g64">
        <path
           d="m 136.413,213.766 c 2.068,6.564 5.37,12.62 7.899,19.001 2.688,6.783 3.887,13.705 3.196,20.996 -0.702,7.399 -2.941,14.57 -5.293,21.585 -2.118,6.318 -4.479,12.524 -4.22,19.3 0.272,7.13 3.079,13.845 5.684,20.383 0.353,0.886 1.804,0.5 1.446,-0.399 -2.368,-5.946 -4.98,-12.065 -5.538,-18.509 -0.601,-6.936 1.669,-13.235 3.847,-19.699 2.314,-6.866 4.496,-13.828 5.395,-21.042 0.874,-7.008 0.202,-13.906 -2.151,-20.568 -2.578,-7.299 -6.489,-14.053 -8.818,-21.448 -0.289,-0.918 -1.738,-0.526 -1.446,0.399 v 0 z"
           style="fill:#263238"
           id="path60" />
        <g
           id="g63">
          <g
             id="g62">
            <path
               d="m 70.936,184.283 c -15.145,-22.831 -10.011,-47.119 8.187,-59.187 18.198,-12.068 42.564,-7.34 57.735,15.436 14.487,21.863 16.575,54.405 0.75,67.704 2.163,0.546 4.048,1.876 5.288,3.731 l -8.483,5.611 c -1.229,-1.862 -1.717,-4.116 -1.368,-6.32 -18.456,9.47 -47.621,-5.113 -62.108,-26.975 z"
               style="fill:#407bff"
               id="path61" />
            <path
               d="m 138.347,208.646 c 0.076,-0.167 0.092,-0.354 0.047,-0.532 -0.099,-0.455 -0.549,-0.744 -1.004,-0.644 h -0.004 c -0.446,0.104 -4.506,1.035 -5.192,3.617 -0.12,0.455 0.145,0.922 0.598,1.051 0.45,0.119 0.912,-0.149 1.031,-0.6 l 0.002,-0.007 c 0.363,-1.359 3.015,-2.211 3.925,-2.41 0.263,-0.055 0.485,-0.231 0.597,-0.476 z"
               style="fill:#263238"
               id="path62" />
          </g>
          <path
             d="m 70.936,184.283 c -15.145,-22.831 -10.011,-47.119 8.187,-59.187 18.198,-12.068 42.564,-7.34 57.735,15.436 14.487,21.863 16.575,54.405 0.75,67.704 2.163,0.546 4.048,1.876 5.288,3.731 l -8.483,5.611 c -1.229,-1.862 -1.717,-4.116 -1.368,-6.32 -18.456,9.47 -47.621,-5.113 -62.108,-26.975 z"
             style="opacity:0.3"
             id="path63" />
        </g>
      </g>
      <g
         id="g69">
        <path
           d="m 146.059,313.298 c -3.37,-6.893 -3.032,-14.96 -1.814,-22.341 0.736,-4.46 1.842,-8.86 2.778,-13.282 0.708,-3.348 1.41,-6.701 2.315,-10.003 2.324,-8.48 6.019,-16.494 9.966,-24.324 4.275,-8.48 8.842,-16.909 11.7,-26.004 3.079,-9.802 4.203,-20.538 0.776,-30.404 -0.315,-0.906 -1.764,-0.517 -1.446,0.399 6.63,19.086 -3.706,38.192 -12.116,54.838 -3.935,7.789 -7.66,15.753 -10.066,24.165 -0.947,3.311 -1.674,6.678 -2.388,10.046 -0.937,4.423 -2.029,8.827 -2.814,13.28 -1.424,8.079 -1.886,16.822 1.813,24.388 0.424,0.867 1.718,0.108 1.295,-0.757 v 0 z"
           style="fill:#263238"
           id="path64" />
        <g
           id="g68">
          <g
             id="g66">
            <path
               d="m 112.303,122.356 c -4.08,-34.045 15.327,-58.305 42.461,-61.552 27.134,-3.247 51.709,15.75 55.849,49.748 3.89,32.592 -12.092,70.143 -37.266,76.102 2.111,1.828 3.469,4.375 3.811,7.146 l -12.64,1.498 c -0.326,-2.773 0.398,-5.568 2.028,-7.834 -25.96,0.198 -50.353,-32.516 -54.243,-65.108 z"
               style="fill:#407bff"
               id="path65" />
            <path
               d="m 173.945,187.528 c 0.178,-0.144 0.302,-0.344 0.351,-0.568 0.145,-0.565 -0.195,-1.14 -0.759,-1.285 h -0.005 c -0.557,-0.137 -5.619,-1.381 -7.838,1.119 -0.39,0.441 -0.356,1.113 0.077,1.511 0.436,0.387 1.103,0.346 1.49,-0.09 l 0.006,-0.006 c 1.171,-1.314 4.615,-0.775 5.744,-0.484 0.325,0.087 0.672,0.014 0.935,-0.197 z"
               style="fill:#263238"
               id="path66" />
          </g>
          <g
             style="opacity:0.3"
             id="g67">
            <path
               d="m 137.94,88.944 c -2,-8.312 4.348,-18.215 16.099,-22.273 4.982,-1.25 12.273,-0.106 17.043,1.799 4.77,1.905 6.356,3.07 10.427,6.201 4.128,3.175 8.901,8.092 11.595,12.55 3.12,5.164 4.218,11.592 2.622,17.41 -1.596,5.818 -5.97,10.888 -11.629,12.98 -5.658,2.093 -12.465,0.996 -16.952,-3.036 -2.893,-2.6 -4.703,-6.155 -6.831,-9.411 -2.128,-3.256 -4.858,-6.435 -8.593,-7.521 -3.029,-0.881 -6.462,-0.298 -9.233,-1.806 -2.491,-1.356 -3.884,-4.136 -4.548,-6.893 z"
               style="fill:#ffffff"
               id="path67" />
          </g>
        </g>
        <path
           d="m 109.222,98.317 c 1.066,-14.48 10.099,-27.86 23.067,-34.351 0.863,-0.432 0.105,-1.726 -0.757,-1.295 -13.456,6.735 -22.707,20.656 -23.81,35.646 -0.071,0.963 1.429,0.959 1.5,0 z"
           style="fill:#407bff"
           id="path68" />
        <path
           d="m 136.686,61.846 c 0.726,-0.197 1.451,-0.393 2.177,-0.59 0.379,-0.103 0.648,-0.538 0.524,-0.923 -0.126,-0.388 -0.517,-0.634 -0.923,-0.524 -0.726,0.197 -1.451,0.393 -2.177,0.59 -0.379,0.103 -0.648,0.538 -0.524,0.923 0.126,0.388 0.517,0.634 0.923,0.524 z"
           style="fill:#407bff"
           id="path69" />
      </g>
      <g
         id="g101">
        <path
           d="m 160.243,366.414 c -0.104,-6.079 -1.386,-12.396 -5.191,-17.139 l -19.111,8.751 c -3.279,3.433 -5.872,7.717 -6.42,12.432 -0.549,4.715 1.248,9.855 5.185,12.508 -1.856,1.804 -3.419,3.978 -4.158,6.46 -0.738,2.481 -0.581,5.293 0.769,7.501 0.751,1.229 2.02,2.304 3.458,2.225 1.655,-0.091 2.818,-1.597 3.817,-2.919 5.238,-6.931 12.202,-12.374 17.733,-19.074 1.414,-1.714 2.757,-3.555 3.398,-5.682 0.492,-1.631 0.549,-3.36 0.52,-5.063 z"
           style="fill:#407bff"
           id="path70" />
        <g
           style="opacity:0.3"
           id="g71">
          <path
             d="m 160.243,366.414 c -0.104,-6.079 -1.386,-12.396 -5.191,-17.139 l -19.111,8.751 c -3.279,3.433 -5.872,7.717 -6.42,12.432 -0.549,4.715 1.248,9.855 5.185,12.508 -1.856,1.804 -3.419,3.978 -4.158,6.46 -0.738,2.481 -0.581,5.293 0.769,7.501 0.751,1.229 2.02,2.304 3.458,2.225 1.655,-0.091 2.818,-1.597 3.817,-2.919 5.238,-6.931 12.202,-12.374 17.733,-19.074 1.414,-1.714 2.757,-3.555 3.398,-5.682 0.492,-1.631 0.549,-3.36 0.52,-5.063 z"
             id="path71" />
        </g>
        <path
           d="m 195.248,360.245 c 1.857,7.024 8.08,12.35 15.022,14.494 6.942,2.144 14.486,1.476 21.507,-0.395 -3.654,5.527 -10.173,9.041 -16.799,9.056 2.366,0.575 4.816,0.803 7.248,0.675 -2.91,2.809 -7.121,3.832 -11.158,4.066 -12.678,0.735 -22.936,-7.526 -22.936,-23.296"
           style="fill:#407bff"
           id="path72" />
        <path
           d="m 176.444,291.259 c 5.229,33.203 35.77,79.73 9.805,90.709 -25.965,10.979 -55.942,0.95 -56.634,-36.943 -0.473,-25.873 -1.1,-34.258 -5.455,-43.795 -4.355,-9.537 52.285,-9.97 52.285,-9.97 z"
           style="fill:#407bff"
           id="path73" />
        <path
           d="m 152.98,330.596 c -0.916,-0.507 -2.121,-11.247 9.194,-15.892 11.315,-4.645 17.157,-10.82 17.157,-10.82 0,0 -1.151,-7.644 -1.912,-7.391 -0.761,0.254 -49.921,12.338 -50.886,12.761 -0.965,0.423 0.462,2.819 0.462,2.819 0,0 14.004,2.172 14.878,8.887 0.874,6.715 0,9.635 0,9.635 h 11.107 z"
           style="fill:#263238"
           id="path74" />
        <path
           d="m 139.722,255.072 c -8.663,1.756 -31.738,20.964 -24.453,45.488 3.812,12.853 22.839,16.231 37.432,12.994 14.593,-3.237 30.399,-14.341 28.422,-27.603 -3.772,-25.304 -32.793,-32.959 -41.401,-30.879 z"
           style="fill:#407bff"
           id="path75" />
        <path
           d="m 153.464,286.778 c -5.615,-1.504 -7.001,-13.443 -9.08,-21.35 -0.442,-1.228 -1.796,-1.864 -3.023,-1.422 -1.012,0.365 -1.65,1.367 -1.552,2.438 1.465,8.041 5.253,19.444 0.788,23.185 -6.552,5.513 -19.688,3.442 -17.515,12.845 2.174,9.403 15.467,13.176 29.352,10.104 13.884,-3.072 24.335,-12.12 22.319,-21.563 -2.016,-9.443 -12.986,-2.04 -21.287,-4.237 z"
           style="fill:#ffffff"
           id="path76" />
        <path
           d="m 129.09,262.695 c -3.237,3.465 -33.384,2.276 -40.881,8.395 -7.497,6.119 9.183,26.713 36.117,15.381 9.017,-12.845 4.765,-23.776 4.765,-23.776 z"
           style="fill:#407bff"
           id="path77" />
        <path
           d="m 125.522,271.39 c -0.693,-4.237 -29.706,-4.284 -36.298,2.449 -5.962,6.096 9.387,14.822 15.491,15.089 9.679,0.417 11.238,-1.528 15.404,-3.78 4.166,-2.252 6.056,-9.813 5.403,-13.758 z"
           style="opacity:0.3;isolation:isolate;fill:#ffffff"
           id="path78" />
        <path
           d="m 138.373,282.061 c 0.364,2.29 -0.695,4.552 -2.365,5.051 -1.67,0.499 -3.319,-0.953 -3.683,-3.243 -0.363,-2.285 0.69,-4.542 2.354,-5.048 1.664,-0.512 3.315,0.923 3.688,3.204 l 0.006,0.035 z"
           style="fill:#263238"
           id="path79" />
        <path
           d="m 145.486,256.222 c 6.3,0 21.106,-25.595 30.407,-28.265 11.403,-3.284 17.68,26.776 -10.112,39.92 -15.144,-4.182 -20.295,-11.656 -20.295,-11.656 z"
           style="fill:#407bff"
           id="path80" />
        <path
           d="m 152.818,262.451 c -3.15,-2.945 15.522,-30.415 24.784,-32.116 8.387,-1.575 7.088,16.05 3.875,21.264 -5.056,8.261 -10.033,11.813 -14.231,14.042 -4.198,2.229 -11.514,-0.441 -14.428,-3.19 z"
           style="opacity:0.3;isolation:isolate;fill:#ffffff"
           id="path81" />
        <path
           d="m 151.571,279.872 c 0.898,2.097 2.842,3.08 4.343,2.197 1.501,-0.884 1.99,-3.299 1.093,-5.396 -0.895,-2.092 -2.833,-3.076 -4.334,-2.202 -1.504,0.876 -2,3.289 -1.107,5.389 l 0.006,0.013 z"
           style="fill:#263238"
           id="path82" />
        <path
           d="m 147.802,291.504 c -4.127,0.914 -9.387,3.095 -7.442,5.198 1.945,2.103 6.71,3.583 9.269,3.016 2.559,-0.567 6.245,-3.938 7.088,-6.655 0.843,-2.717 -4.788,-2.496 -8.915,-1.559 z"
           style="fill:#263238"
           id="path83" />
        <rect
           x="149.58299"
           y="299.65701"
           width="0.78799999"
           height="3.1340001"
           transform="rotate(-12.51,149.97669,301.22207)"
           style="fill:#263238"
           id="rect83" />
        <path
           d="m 137.712,302.134 c 3.189,2.153 11.038,5.515 14.817,3.929 3.779,-1.586 6.898,-9.535 7.6,-13.319 -2.95,10.127 -14.282,13.5 -22.418,9.39 z"
           style="fill:#263238"
           id="path84" />
        <path
           d="m 143.345,303.219 c -0.609,-0.146 -1.017,-0.162 -1.164,0.447 -0.007,0.03 -0.013,0.061 -0.018,0.092 -0.701,4.064 -0.638,9.167 6.166,8.49 5.812,-0.583 4.835,-6.111 4.064,-8.663 -0.175,-0.604 -0.803,-0.955 -1.41,-0.788 -1.134,0.273 -2.299,0.395 -3.465,0.362 -1.331,0.044 -2.868,0.324 -4.173,0.06 z"
           style="fill:#407bff"
           id="path85" />
        <path
           d="m 146.904,309.255 c -0.409,-0.969 -0.315,-4.725 0,-6.174 l 0.788,0.157 c -0.307,1.575 -0.323,5.009 0,5.71 z"
           style="opacity:0.3;isolation:isolate;fill:#263238"
           id="path86" />
        <path
           d="m 148.168,303.653 c -3.619,0.56 -8.1,0.129 -10.702,-1.596 -0.611,0.312 -1.095,0.826 -1.369,1.455 l -0.748,-0.251 c 0.369,-0.908 1.076,-1.638 1.972,-2.034 l 0.207,-0.104 0.189,0.138 c 3.107,2.213 9.448,2.3 13.041,0.899 3.593,-1.4 8.202,-5.755 8.987,-9.495 l 0.045,-0.222 0.233,-0.036 c 0.919,-0.31 1.922,-0.257 2.804,0.148 l -0.38,0.688 c -0.625,-0.275 -1.325,-0.327 -1.983,-0.147 -0.987,3.922 -5.708,8.382 -9.414,9.824 -0.932,0.348 -1.898,0.593 -2.883,0.733 z"
           style="fill:#263238"
           id="path87" />
        <path
           d="m 134.098,325.503 c 0,0 36.745,13.917 45.754,-19.83 l 4.678,13.419 c 0,0 -3.24,15.2 -21.583,19.593 -27.428,6.568 -39.027,-4.392 -39.027,-4.392 l 10.177,-8.79 z"
           style="fill:#263238"
           id="path88" />
        <path
           d="m 129.643,346.1 c 0,0 4.501,-2.23 4.72,-5.318 0.219,-3.088 0,-4.769 0,-4.769 0,0 5.161,-11.43 4.431,-12.785 -0.164,-0.305 -9.223,12.473 -9.37,12.912 -0.147,0.439 0.219,9.961 0.219,9.961 z"
           style="opacity:0.3"
           id="path89" />
        <path
           d="m 126.995,312.074 c -5.174,4.513 -10.34,20.72 -8.749,25.776 -4.631,6.867 -2.867,10.199 3.41,9.994 6.277,-0.205 10.703,-7.088 9.907,-10.325 -0.795,-3.237 9.45,-11.561 7.033,-17.964 -1.835,-4.851 -7.97,-10.655 -11.6,-7.482 z"
           style="fill:#407bff"
           id="path90" />
        <path
           d="m 122.104,348.246 c -0.084,0 -0.166,-0.024 -0.236,-0.071 -1.181,-0.874 -0.614,-4.158 0.236,-6.096 0.065,-0.207 0.286,-0.323 0.494,-0.257 0.207,0.065 0.323,0.286 0.257,0.494 -0.009,0.027 -0.02,0.054 -0.035,0.079 -0.929,2.142 -1.063,4.725 -0.48,5.143 0.174,0.131 0.209,0.377 0.079,0.551 -0.074,0.099 -0.191,0.157 -0.315,0.157 z"
           style="fill:#263238"
           id="path91" />
        <path
           d="m 117.615,347.639 c -0.114,-0.001 -0.223,-0.05 -0.299,-0.134 -0.929,-1.047 -0.087,-4.339 1.236,-6.206 0.126,-0.178 0.373,-0.221 0.551,-0.095 0.178,0.126 0.221,0.373 0.094,0.551 -1.252,1.756 -1.835,4.615 -1.292,5.229 0.152,0.149 0.155,0.394 0.006,0.546 l -0.006,0.005 c -0.078,0.074 -0.184,0.111 -0.291,0.102 z"
           style="fill:#263238"
           id="path92" />
        <path
           d="m 158.748,321.484 c -3.15,6.088 -1.097,16.606 2.218,20.756 -1.819,8.08 1.806,12.627 7.587,10.154 5.78,-2.473 9.186,-11.515 7.265,-14.24 -1.922,-2.725 -3.132,-16.057 -7.503,-18.852 -4.371,-2.796 -7.33,-2.095 -9.567,2.181 z"
           style="opacity:0.3"
           id="path93" />
        <path
           d="m 159.872,318.665 c -3.15,6.088 -0.323,18.688 2.993,22.839 -1.819,8.08 1.032,10.545 6.812,8.072 5.78,-2.473 7.395,-10.49 5.473,-13.215 -1.922,-2.725 1.961,-17.247 -2.41,-20.043 -4.371,-2.796 -10.632,-1.93 -12.868,2.347 z"
           style="fill:#407bff"
           id="path94" />
        <path
           d="m 170.095,349.805 h -0.102 c -1.418,-0.386 -2.079,-3.654 -2,-5.765 0.023,-0.21 0.198,-0.372 0.41,-0.378 0.217,0.008 0.386,0.192 0.378,0.409 v 0 c -0.087,2.363 0.724,4.789 1.418,4.978 0.206,0.053 0.331,0.263 0.279,0.469 l -0.003,0.011 c -0.052,0.165 -0.205,0.277 -0.378,0.276 z"
           style="fill:#263238"
           id="path95" />
        <path
           d="m 165.692,350.868 c -0.063,0 -0.126,-0.016 -0.181,-0.047 -1.252,-0.638 -1.662,-4.016 -1.103,-6.229 0.05,-0.207 0.258,-0.335 0.465,-0.285 l 0.007,0.002 c 0.21,0.051 0.341,0.262 0.291,0.472 -0.528,2.095 0,4.969 0.693,5.34 0.196,0.095 0.278,0.33 0.183,0.526 -0.066,0.136 -0.204,0.223 -0.356,0.222 v 0 z"
           style="fill:#263238"
           id="path96" />
        <g
           style="opacity:0.3"
           id="g97">
          <path
             d="m 190.756,369.073 c -0.09,-5.246 -1.196,-10.697 -4.479,-14.789 l -16.491,7.551 c -2.829,2.962 -5.066,6.659 -5.54,10.727 -0.473,4.069 1.077,8.504 4.474,10.793 -0.926,0.9 -1.766,1.906 -2.435,3.008 h 9.332 l 11.757,-8.019 c 1.221,-1.479 2.379,-3.067 2.933,-4.903 0.424,-1.407 0.474,-2.899 0.448,-4.369 z"
             id="path97" />
        </g>
        <path
           d="m 196.697,366.414 c -0.104,-6.079 -1.386,-12.396 -5.191,-17.139 l -19.111,8.751 c -3.279,3.433 -5.872,7.717 -6.42,12.432 -0.549,4.715 1.248,9.855 5.185,12.508 -1.856,1.804 -3.419,3.978 -4.158,6.46 -0.738,2.481 -0.581,5.293 0.769,7.501 0.751,1.229 2.02,2.304 3.458,2.225 1.655,-0.091 2.818,-1.597 3.817,-2.919 5.238,-6.931 12.202,-12.374 17.733,-19.074 1.414,-1.714 2.757,-3.555 3.398,-5.682 0.492,-1.631 0.549,-3.36 0.52,-5.063 z"
           style="fill:#407bff"
           id="path98" />
        <path
           d="m 191.595,378.597 c 0,0 3.823,-3.572 4.971,-14.911 l 2.546,3.812 c 0,0 1.688,8.481 -4.983,14.466 -1.065,-0.978 -1.876,-2.123 -2.534,-3.368 z"
           style="opacity:0.3"
           id="path99" />
        <path
           d="m 156.271,276.441 c 0.193,0.577 0.088,1.133 -0.234,1.24 -0.322,0.107 -0.739,-0.273 -0.932,-0.851 -0.193,-0.577 -0.088,-1.133 0.234,-1.24 0.322,-0.108 0.739,0.273 0.932,0.851 z"
           style="fill:#ffffff"
           id="path100" />
        <path
           d="m 137.11,281.711 c 0.146,0.591 -0.003,1.136 -0.333,1.217 -0.329,0.081 -0.715,-0.332 -0.861,-0.923 -0.146,-0.591 0.003,-1.136 0.333,-1.217 0.329,-0.081 0.715,0.332 0.861,0.923 z"
           style="fill:#ffffff"
           id="path101" />
      </g>
    </g>
  </g>
</svg>
